<svg width="33" height="33" viewBox="0 0 33 33" fill="none" xmlns="http://www.w3.org/2000/svg">
<path d="M8.86392 4.67L4.62679 8.90712C4.43926 9.09466 4.18453 9.20039 3.91931 9.20039C3.65409 9.20039 3.39974 9.09503 3.2122 8.9075C3.02467 8.71996 2.91931 8.46561 2.91931 8.20039C2.91931 7.93517 3.02467 7.68082 3.2122 7.49328L7.4497 3.25578C7.63724 3.06825 7.89159 2.96289 8.15681 2.96289C8.38635 2.96289 8.6089 3.04186 8.78711 3.18654C8.81389 3.20828 8.83953 3.23139 8.86392 3.25578C9.05145 3.44332 9.15681 3.69767 9.15681 3.96289C9.15681 4.22811 9.05145 4.48246 8.86392 4.67Z" fill="#1C1C1C"/>
<path d="M24.4248 4.67012L28.6622 8.9075C28.8498 9.09503 29.1041 9.20039 29.3693 9.20039C29.6346 9.20039 29.8889 9.09503 30.0764 8.9075C30.264 8.71996 30.3693 8.46561 30.3693 8.20039C30.3693 7.93517 30.264 7.68082 30.0764 7.49328L25.8391 3.2559C25.6514 3.06825 25.3971 2.96289 25.1318 2.96289C24.8666 2.96289 24.6123 3.06825 24.4247 3.25578C24.2372 3.44332 24.1318 3.69767 24.1318 3.96289C24.1318 4.22811 24.2372 4.48246 24.4248 4.67012Z" fill="#1C1C1C"/>
<path d="M23.6443 17.688H16.6443C16.092 17.688 15.6443 17.2403 15.6443 16.688V9.68799C15.6443 9.1357 16.092 8.68799 16.6443 8.68799C17.1966 8.68799 17.6443 9.1357 17.6443 9.68799V15.688H23.6443C24.1966 15.688 24.6443 16.1357 24.6443 16.688C24.6443 17.2403 24.1966 17.688 23.6443 17.688Z" fill="#1C1C1C"/>
<path fill-rule="evenodd" clip-rule="evenodd" d="M21.3155 5.63142C19.085 4.68799 16.6443 4.68799 16.6443 4.68799C14.2036 4.68799 11.973 5.63142 11.973 5.63142C9.81937 6.54234 8.15901 8.20271 8.15901 8.20271C6.49864 9.86307 5.58772 12.0167 5.58772 12.0167C4.64429 14.2473 4.64429 16.688 4.64429 16.688C4.64429 19.1287 5.58772 21.3592 5.58772 21.3592C6.49864 23.5129 8.15901 25.1733 8.15901 25.1733C9.81937 26.8336 11.973 27.7446 11.973 27.7446C14.2036 28.688 16.6443 28.688 16.6443 28.688C19.085 28.688 21.3155 27.7446 21.3155 27.7446C23.4692 26.8336 25.1296 25.1733 25.1296 25.1733C26.7899 23.5129 27.7009 21.3592 27.7009 21.3592C28.6443 19.1287 28.6443 16.688 28.6443 16.688C28.6443 14.2473 27.7009 12.0167 27.7009 12.0167C26.7899 9.86307 25.1296 8.20271 25.1296 8.20271C23.4692 6.54234 21.3155 5.63142 21.3155 5.63142ZM12.7521 7.47343C14.6091 6.68799 16.6443 6.68799 16.6443 6.68799C18.6794 6.68799 20.5364 7.47343 20.5364 7.47343C22.3308 8.23239 23.7154 9.61692 23.7154 9.61692C25.0999 11.0014 25.8588 12.7958 25.8588 12.7958C26.6443 14.6528 26.6443 16.688 26.6443 16.688C26.6443 18.7231 25.8588 20.5801 25.8588 20.5801C25.0999 22.3745 23.7154 23.7591 23.7154 23.7591C22.3308 25.1436 20.5364 25.9025 20.5364 25.9025C18.6794 26.688 16.6443 26.688 16.6443 26.688C14.6091 26.688 12.7521 25.9025 12.7521 25.9025C10.9577 25.1436 9.57322 23.7591 9.57322 23.7591C8.18869 22.3745 7.42973 20.5801 7.42973 20.5801C6.64429 18.7231 6.64429 16.688 6.64429 16.688C6.64429 14.6528 7.42973 12.7958 7.42973 12.7958C8.18869 11.0014 9.57322 9.61692 9.57322 9.61692C10.9577 8.23239 12.7521 7.47343 12.7521 7.47343Z" fill="#1C1C1C"/>
</svg>
