<svg width="32" height="32" viewBox="0 0 32 32" fill="none" xmlns="http://www.w3.org/2000/svg">
<path d="M5 25V6C5 5.44772 4.55228 5 4 5C3.44772 5 3 5.44772 3 6V26C3 26.5523 3.44772 27 4 27H28C28.5523 27 29 26.5523 29 26C29 25.4477 28.5523 25 28 25H5Z" fill="#FEFAF9"/>
<path d="M11.3415 12.2474L3.3415 19.2474C3.12448 19.4373 3 19.7116 3 20C3 20.0123 3.00023 20.0246 3.00068 20.0369C3.00915 20.2663 3.09627 20.4858 3.24742 20.6585C3.43731 20.8755 3.71164 21 4 21C4.0123 21 4.02459 20.9998 4.03688 20.9993C4.26627 20.9909 4.48576 20.9037 4.6585 20.7526L12.0485 14.2864L19.4 19.8C19.778 20.0835 20.3029 20.0637 20.6585 19.7526L28.6582 12.7528C28.8752 12.5629 29 12.2884 29 12C29 11.9877 28.9998 11.9754 28.9993 11.9631C28.9909 11.7337 28.9037 11.5142 28.7526 11.3415C28.5627 11.1245 28.2884 11 28 11C27.9877 11 27.9754 11.0002 27.9631 11.0007C27.7337 11.0091 27.5142 11.0963 27.3415 11.2474L19.9515 17.7136L12.6 12.2C12.222 11.9165 11.6971 11.9363 11.3415 12.2474Z" fill="#FEFAF9"/>
</svg>
