<svg width="32" height="32" viewBox="0 0 32 32" fill="none" xmlns="http://www.w3.org/2000/svg">
<path d="M1.35984 16.7682L7.35926 21.7677C7.53897 21.9175 7.76609 22 8.00003 22C8.29688 22 8.57828 21.8681 8.76825 21.6402C8.91801 21.4605 9.00002 21.2339 9.00002 21C9.00002 20.9696 8.99865 20.9395 8.99592 20.9095C8.97191 20.6453 8.84396 20.4016 8.64021 20.2318L3.56208 16L8.6401 11.7683C8.84396 11.5984 8.97191 11.3547 8.99592 11.0905C8.99866 11.0604 9.00003 11.0302 9.00003 11L9.00001 10.9941C8.99865 10.7622 8.91672 10.538 8.76825 10.3598C8.57825 10.1318 8.29681 10 8.00003 10L7.98722 10.0001C7.7577 10.003 7.53618 10.0848 7.35984 10.2318L1.35984 15.2318C1.31338 15.2705 1.27052 15.3134 1.2318 15.3598C0.87824 15.7841 0.935564 16.4147 1.35984 16.7682Z" fill="white"/>
<path d="M28.438 16L23.3604 20.2313C23.1567 20.4011 23.0281 20.6453 23.0041 20.9095C23.0014 20.9396 23 20.9698 23 21L23 21.0059C23.0014 21.2378 23.0833 21.462 23.2318 21.6402C23.4218 21.8682 23.7033 22 24 22L24.0128 21.9999C24.2424 21.997 24.4639 21.9152 24.6402 21.7682L30.6402 16.7682C31.0645 16.4147 31.1218 15.7841 30.7683 15.3598C30.7295 15.3134 30.6867 15.2705 30.6402 15.2318L24.6403 10.2319C24.4605 10.082 24.234 10 24 10C23.7032 10 23.4218 10.1319 23.2318 10.3598C23.082 10.5395 23 10.7661 23 11C23.0001 11.2969 23.1319 11.5783 23.3598 11.7682L28.438 16Z" fill="white"/>
<path d="M19.0602 4.65826L11.0602 26.6583C11.0204 26.7678 11 26.8834 11 27L11.0004 27.0282C11.012 27.4382 11.2728 27.7996 11.6583 27.9398C11.7678 27.9796 11.8835 28 12 28C12.0147 28 12.0293 27.9997 12.0439 27.999C12.1751 27.9933 12.3039 27.9617 12.4229 27.9062C12.6633 27.794 12.8492 27.591 12.9398 27.3417L20.9398 5.34174C20.9797 5.23221 21 5.11655 21 5C21 4.98536 20.9997 4.97072 20.9991 4.95609C20.9933 4.82489 20.9617 4.69612 20.9062 4.57711C20.7941 4.33678 20.591 4.15084 20.3418 4.06021C20.2322 4.02038 20.1166 4 20 4L19.9718 4.0004C19.5618 4.01196 19.2004 4.27275 19.0602 4.65826Z" fill="white"/>
</svg>
