<svg width="32" height="32" viewBox="0 0 32 32" fill="none" xmlns="http://www.w3.org/2000/svg">
<path d="M16.8521 2.47664L16.8517 2.4759C16.6697 2.18015 16.3473 2 16 2L15.9763 2.00028C15.7993 2.00448 15.6267 2.05557 15.4759 2.14834C15.25 2.28734 15.0886 2.51038 15.0272 2.76838C15.0091 2.84426 15 2.922 15 3L15.0001 3.01005C15.0019 3.19168 15.0531 3.3694 15.1483 3.5241L22.2104 15L8 15C7.44772 15 7 15.4477 7 16C7 16.1851 7.05135 16.3665 7.14834 16.5241L15.1483 29.5241C15.3303 29.8198 15.6527 30 16 30L16.0237 29.9997C16.2007 29.9955 16.3733 29.9444 16.5241 29.8517C16.8198 29.6697 17 29.3473 17 29L16.9997 28.9763C16.9955 28.7993 16.9444 28.6267 16.8517 28.4759L16.8512 28.4752L9.78956 17L24 17C24.1851 17 24.3665 16.9486 24.5241 16.8517C24.9945 16.5622 25.1411 15.9463 24.8517 15.4759L16.8521 2.47664Z" fill="white"/>
</svg>
