<?xml version="1.0" encoding="UTF-8"?>
<!-- Generator: Adobe Illustrator 28.0.0, SVG Export Plug-In . SVG Version: 6.00 Build 0)  -->
<svg version="1.1" id="Calque_1" xmlns="http://www.w3.org/2000/svg" xmlns:xlink="http://www.w3.org/1999/xlink" x="0px" y="0px" viewBox="0 0 595.28 295.74" style="enable-background:new 0 0 595.28 295.74;" xml:space="preserve">
<style type="text/css">
	.st0{fill:#F1C413;}
</style>
<path class="st0" d="M506.61,173.84c-5.27,1.84-11.61,1.79-13.99-0.22c0.48-0.11,0.83-0.26,1.17-0.25  c3.73,0.09,7.45,0.12,11.12-0.71C505.76,172.46,506.57,172.42,506.61,173.84"/>
<path class="st0" d="M422.28,174.43c-4.15,2.17-8.58,3-13.16,3.05c1.15-1.32,2.76-0.94,4.14-1.4c1.47-0.49,3.02-0.71,4.53-1.11  C419.24,174.58,420.68,174.07,422.28,174.43"/>
<path d="M120.43,168.35c-0.96-2.51-1.9-4.65-2.6-6.86c-1.68-5.32-2.14-10.72-1.27-16.28c1.47-9.42,5.91-17.12,13.15-23.21  c5.43-4.57,11.72-7.35,18.76-8.45c4.55-0.71,9.09-0.68,13.58,0.19c7.02,1.37,13.27,4.4,18.62,9.19c3.67,3.29,6.61,7.13,8.76,11.56  c0.19,0.38,0.41,0.74,0.81,1.46c0.42-0.78,0.72-1.28,0.96-1.81c4.2-9.12,10.79-15.79,20.18-19.53c6.27-2.5,12.75-2.91,19.37-1.74  c3.26,0.58,6.34,1.64,9.27,3.18c0.66,0.35,1.36,0.61,2.07,0.93c1.41-1.8,2.85-3.37,4.98-4.1c6.58-2.25,12.17,1.88,12.83,7.15  c0.12,0.94,0.24,1.88,0.24,2.83c0.01,21.38,0.07,42.77-0.02,64.16c-0.04,9.32-2.78,17.81-8.89,25c-4.78,5.64-10.71,9.53-17.91,11.45  c-5.48,1.46-10.99,1.73-16.52,0.56c-7.46-1.58-13.73-5.32-18.87-10.93c-1.24-1.35-2.35-2.81-3.43-4.3c-2.75-3.8-2.06-9.64,1.8-12.6  c4.24-3.26,9.73-2.9,13.16,0.94c1.3,1.46,2.42,3.1,3.81,4.46c6.34,6.22,15.27,5.74,21.56,0.11c4.21-3.77,5.92-8.68,6.26-14.17  c0.08-1.31,0.01-2.63,0.01-4.29c-0.85,0.28-1.43,0.4-1.95,0.65c-5.38,2.45-11.01,3.67-16.94,3.32c-8.24-0.48-15.45-3.48-21.6-8.99  c-3.96-3.55-7.07-7.73-9.25-12.59c-0.15-0.33-0.34-0.65-0.62-1.18c-0.38,0.59-0.72,1.01-0.94,1.48  c-4.84,10.24-12.79,16.96-23.47,20.4c-6.3,2.03-12.78,2.18-19.3,1c-6.03-1.1-11.4-3.63-16.27-7.29c-0.3-0.22-0.62-0.42-1-0.68  c-0.24,0.26-0.52,0.44-0.64,0.7c-1.75,3.8-4.98,5.36-8.88,5.89c-0.87,0.12-1.77,0.08-2.65,0.08c-14.93,0-29.87-0.01-44.8,0.01  c-2.43,0-4.8-0.24-6.99-1.37c-2.03-1.04-3.69-2.5-4.43-4.72c-0.33-0.99-0.45-2.1-0.45-3.15c-0.03-15.44-0.02-30.88-0.02-46.31  c0-13.54,0-27.08,0-40.62c0-4.75,2.14-7.75,6.65-9.15c2.93-0.91,5.86-0.81,8.72,0.36c2.81,1.15,5.69,4.15,5.67,8.39  c-0.1,25.43-0.05,50.87-0.05,76.3c0,2.66,0,2.66,2.74,2.66c11.26,0,22.52,0,33.79,0C119.04,168.44,119.65,168.39,120.43,168.35   M135.48,150.66c0,4.91,1.75,9.15,5.13,12.66c5.77,6,14.55,7.73,22.32,4.12c8.13-3.78,12.53-12.31,10.47-20.96  c-2.52-10.56-12.76-15.9-21.87-14.39C142.2,133.65,135.49,141.41,135.48,150.66 M224.14,131.06c-4.29-0.02-7.92,1.57-10.97,4.48  c-7.42,7.07-7.81,19.5-0.99,27.38c6.13,7.08,16.98,7.37,23.35,0.55c6.29-6.74,7.28-16.75,2.29-24.54  C234.64,133.98,230.13,131.2,224.14,131.06"/>
<path d="M454.19,161.13c-0.74,0.69-1.29,1.18-1.82,1.71c-4.46,4.39-8.95,8.75-13.92,12.58c-5.76,4.43-11.96,8-19.04,9.87  c-6,1.58-12.03,2.06-18.2,1.1c-6.04-0.94-11.57-3.04-16.54-6.59c-6.55-4.68-10.93-10.97-13.45-18.56  c-2.49-7.49-2.96-15.19-1.17-22.82c2.78-11.84,9.71-20.65,20.53-26.32c6.42-3.37,13.31-4.75,20.5-4.49  c6.81,0.25,13.13,2.32,19.05,5.69c4.92,2.8,9.39,6.19,13.52,10.03c3.42,3.19,6.74,6.48,10.11,9.72c0.08,0.08,0.23,0.1,0.47,0.2  c0.22-0.18,0.52-0.39,0.77-0.64c5.95-5.95,11.96-11.82,19-16.52c5.96-3.98,12.38-6.9,19.49-7.93c11.66-1.7,22.54,0.21,31.97,7.78  c6.17,4.95,10.07,11.42,12.24,18.96c1.56,5.41,1.84,10.95,1.35,16.53c-0.58,6.63-2.89,12.66-6.65,18.11  c-5,7.26-11.71,12.32-20.07,15.12c-8.13,2.72-16.3,3.04-24.58,0.58c-6.27-1.87-11.79-5.09-16.96-9c-5.42-4.09-10.21-8.87-15.04-13.6  C455.29,162.19,454.84,161.76,454.19,161.13 M467.89,147.12c0.28,0.37,0.44,0.64,0.66,0.85c2.72,2.65,5.39,5.34,8.17,7.93  c3.81,3.54,7.83,6.8,12.62,8.96c4.88,2.21,9.91,3.03,15.11,1.39c10.39-3.27,16.58-14.01,13.35-25.2  c-3.16-10.94-13.7-15.57-23.76-12.95c-3.46,0.9-6.62,2.45-9.61,4.37c-5.94,3.83-10.99,8.7-15.86,13.77  C468.36,146.45,468.19,146.72,467.89,147.12 M440.44,147.39c-0.29-0.38-0.52-0.76-0.82-1.05c-2.66-2.61-5.31-5.24-8.02-7.8  c-2.99-2.82-6.2-5.38-9.74-7.49c-3.76-2.24-7.82-3.66-12.18-3.68c-5.68-0.02-10.66,2.03-14.52,6.26c-5.13,5.61-6.63,12.2-4.69,19.53  c0.94,3.55,2.69,6.68,5.49,9.12c5.51,4.79,11.87,5.81,18.78,3.95c3.95-1.06,7.47-3.01,10.81-5.32c5.27-3.66,9.73-8.23,14.27-12.71  C440.05,147.98,440.21,147.7,440.44,147.39 M523.93,162.37c-0.77-0.79-1.22-0.33-1.6,0.22c-1.66,2.41-3.8,4.36-5.98,6.28  c-0.2,0.18-0.32,0.45-0.54,0.76C518.24,169.52,521.9,166.2,523.93,162.37 M410.65,176.45c0.02,0.14,0.05,0.28,0.07,0.42  c3.44,0.78,6.53-0.79,9.7-1.73c0.25-0.07,0.39-0.48,0.59-0.74c-0.24-0.17-0.35-0.31-0.44-0.3c-3.2,0.54-6.2,1.98-9.49,2.06  C410.94,176.16,410.8,176.35,410.65,176.45 M470.5,132.68c-0.53-1.03-0.98-0.79-1.52-0.24c-1.97,2.02-3.98,4.01-5.95,6.03  c-0.21,0.21-0.27,0.57-0.4,0.87c0.11,0.09,0.23,0.18,0.34,0.27C465.85,137.78,467.96,135.07,470.5,132.68 M399.29,176.4  c0.05-0.18,0.1-0.36,0.14-0.55c-0.35-0.19-0.69-0.48-1.06-0.56c-2.76-0.54-5.27-1.67-7.59-3.24c-0.21-0.14-0.42-0.34-0.65-0.37  c-0.21-0.03-0.53,0.07-0.64,0.22c-0.11,0.16-0.1,0.53,0.01,0.69c0.18,0.24,0.47,0.42,0.75,0.54c2.54,1.07,5.09,2.14,7.66,3.16  C398.33,176.46,398.83,176.37,399.29,176.4 M475.93,164.3c-0.69,0.78-0.27,1.18,0.3,1.56c2.42,1.57,4.85,3.15,7.27,4.72  c0.16,0.1,0.33,0.28,0.49,0.26c0.27-0.03,0.58-0.12,0.76-0.3c0.09-0.09,0.01-0.51-0.13-0.65c-0.21-0.22-0.54-0.31-0.8-0.48  c-2.26-1.47-4.53-2.94-6.79-4.42C476.68,164.77,476.32,164.55,475.93,164.3 M528.17,152.41c0.99-1.26,0.69-2.49,0.75-3.65  c0.05-1.13,0.08-2.27,0-3.4c-0.08-1.08,0.41-2.26-0.64-3.65c-0.25,3.62-0.48,6.8-0.67,9.98  C527.59,151.86,527.87,152.05,528.17,152.41 M377.09,143.34c0.39-0.18,0.75-0.25,0.78-0.39c0.75-3.08,1.46-6.16,2.23-9.43  C378.47,135.11,376.87,140.34,377.09,143.34 M378.58,154.37c-0.32,3.23,1.12,5.91,2.47,8.62c0.26,0.52,0.6,1,1.34,0.64  C381.12,160.53,379.85,157.45,378.58,154.37 M487.83,119.56c-3.35,1.42-6.34,3.09-9.06,5.29c0.3,0.17,0.57,0.25,0.76,0.16  c2.72-1.42,5.44-2.85,8.15-4.31c0.13-0.07,0.2-0.3,0.25-0.48C487.96,120.12,487.9,119.99,487.83,119.56 M406.37,116.33  c1.56,1.05,3.37,0.61,5.04,0.83c1.66,0.22,3.32,0.81,5.03,0.51C413.21,116.17,409.87,115.61,406.37,116.33 M435.49,128.69  c0.6-0.56,0.48-1.02-0.08-1.42c-2.41-1.7-4.83-3.39-7.26-5.06c-0.17-0.11-0.5,0.01-1.01,0.04  C430.08,124.52,432.78,126.6,435.49,128.69 M495.48,174.01c0.02,0.21,0.05,0.42,0.07,0.64c3.44,0.08,6.88,0.21,10.58-0.65  c-0.44-0.35-0.63-0.62-0.8-0.61C502.04,173.58,498.76,173.8,495.48,174.01 M395.05,118.77c-3.71,0.76-7.79,3.66-8.6,5.67  c0.2-0.01,0.42,0.05,0.52-0.03c2.24-1.95,4.71-3.53,7.43-4.74C394.69,119.54,394.84,119.08,395.05,118.77 M525.46,131.21  c0.08-0.13,0.17-0.26,0.25-0.38c-1.34-3.2-3.57-5.72-6.15-7.96c-0.1-0.09-0.37,0.01-0.9,0.06c2.49,2.45,4.43,4.91,5.82,7.76  C524.6,130.95,525.12,131.03,525.46,131.21 M438.78,162.12c-1.24,0.28-2.07,1.11-2.96,1.85c-0.92,0.77-1.93,1.43-2.79,2.25  c-0.81,0.77-2.06,1.05-2.42,2.32C433.8,167,436.61,164.97,438.78,162.12 M447.28,154.55c1.14-0.32,1.83-1.29,2.67-2.04  c0.89-0.8,1.79-1.59,2.63-2.43c0.8-0.8,1.87-1.36,2.62-2.57C453.41,147.98,448.95,151.86,447.28,154.55 M499.27,116.66  c-0.01,0.19-0.03,0.39-0.04,0.58c0.47,0,0.95,0.02,1.42-0.01c0.88-0.05,1.76-0.25,2.63-0.18c1.56,0.14,3.11,0.43,4.66,0.67  c0.6,0.09,1.23,0.38,1.78-0.82C506.11,116.3,502.68,116.7,499.27,116.66 M443.24,135.93c0.57,1.7,1.89,3.37,3.29,4.24  c0.01-1.76-1.43-2.52-2.13-3.66C444.26,136.25,443.79,136.18,443.24,135.93 M466.74,157.47c0.15-1.29-1.72-3.15-3.3-3.29  C464.08,155.52,465.29,156.72,466.74,157.47"/>
<path d="M344.23,117.06c0.06-0.86,0.16-1.59,0.16-2.31c0.01-10.12,0-20.25,0.01-30.37c0.01-4.28,2.23-7.52,5.99-9.02  c4.64-1.84,9.77,0.37,11.84,3.77c1.03,1.69,1.38,3.52,1.41,5.43c0.04,2.28,0.01,4.55,0.01,6.83c0,28.41,0.01,56.81-0.03,85.22  c0,1.67-0.18,3.48-0.82,4.99c-2.81,6.66-12.01,7.66-16.61,1.9c-0.35-0.44-0.67-0.91-1.08-1.49c-0.87,0.4-1.73,0.75-2.55,1.17  c-6.67,3.35-13.78,4.65-21.16,3.94c-15.89-1.53-29.09-11.99-33.36-27.12c-3.7-13.07-0.77-24.9,8.24-35.11  c5.16-5.85,11.67-9.61,19.22-11.51c5.4-1.36,10.87-1.45,16.37-0.53c3.9,0.65,7.58,1.92,11.07,3.76  C343.26,116.78,343.63,116.85,344.23,117.06 M325.08,131.03c-4.07-0.18-7.74,1.04-11.05,3.32c-9.3,6.4-11.19,19.27-3.42,27.81  c6.24,6.86,16.19,8.44,24.21,3.78c7.32-4.26,10.9-11.81,9.17-19.94C341.99,136.57,333.52,130.76,325.08,131.03"/>
<path d="M283.48,150.22c0,9.3-0.13,18.6,0.06,27.89c0.09,4.57-3.55,8.3-7,9c-4.9,1-8.94-0.5-11.08-4.77  c-0.6-1.2-0.97-2.65-0.98-3.98c-0.06-18.91-0.06-37.82-0.03-56.73c0.01-4.59,3.29-8.32,7.89-9.09c4.94-0.82,9.45,2.16,10.85,6.59  c0.28,0.88,0.27,1.87,0.28,2.82C283.48,131.37,283.48,140.8,283.48,150.22"/>
<path d="M283.48,89.23c0.36,5.13-4.74,9.38-9.67,9.24c-5.26-0.15-9.33-4.14-9.39-9.38c-0.06-5.35,4.59-9.34,9.62-9.32  C278.78,79.77,283.98,83.97,283.48,89.23"/>
<path class="st0" d="M523.93,162.37c-2.03,3.82-5.69,7.14-8.11,7.26c0.22-0.32,0.34-0.59,0.54-0.76c2.18-1.92,4.32-3.86,5.98-6.28  C522.71,162.04,523.16,161.59,523.93,162.37"/>
<path class="st0" d="M470.5,132.68c-2.53,2.39-4.65,5.09-7.54,6.93c-0.11-0.09-0.23-0.18-0.34-0.27c0.13-0.29,0.19-0.65,0.4-0.87  c1.97-2.02,3.98-4.01,5.95-6.03C469.51,131.89,469.97,131.66,470.5,132.68"/>
<path class="st0" d="M399.29,176.4c-0.46-0.03-0.97,0.06-1.37-0.1c-2.57-1.02-5.11-2.09-7.66-3.16c-0.28-0.12-0.58-0.3-0.75-0.54  c-0.12-0.16-0.12-0.52-0.01-0.69c0.1-0.16,0.43-0.25,0.64-0.22c0.23,0.03,0.44,0.23,0.65,0.37c2.32,1.57,4.82,2.7,7.59,3.24  c0.38,0.07,0.71,0.37,1.06,0.56C399.39,176.03,399.34,176.22,399.29,176.4"/>
<path class="st0" d="M475.93,164.3c0.39,0.25,0.75,0.47,1.1,0.69c2.26,1.47,4.52,2.95,6.79,4.42c0.26,0.17,0.59,0.26,0.8,0.48  c0.14,0.14,0.22,0.56,0.13,0.65c-0.18,0.18-0.49,0.27-0.76,0.3c-0.15,0.02-0.33-0.16-0.49-0.26c-2.42-1.57-4.85-3.15-7.27-4.72  C475.66,165.48,475.24,165.08,475.93,164.3"/>
<path class="st0" d="M528.17,152.41c-0.29-0.36-0.58-0.55-0.57-0.72c0.19-3.18,0.42-6.37,0.67-9.98c1.05,1.39,0.56,2.58,0.64,3.65  c0.08,1.13,0.05,2.27,0,3.41C528.86,149.92,529.15,151.15,528.17,152.41"/>
<path class="st0" d="M377.09,143.34c-0.22-3,1.38-8.22,3.01-9.82c-0.77,3.27-1.48,6.35-2.23,9.43  C377.84,143.09,377.48,143.15,377.09,143.34"/>
<path class="st0" d="M378.58,154.37c1.27,3.08,2.54,6.16,3.81,9.26c-0.74,0.36-1.08-0.12-1.34-0.64  C379.7,160.28,378.26,157.6,378.58,154.37"/>
<path class="st0" d="M487.83,119.56c0.07,0.43,0.12,0.56,0.09,0.67c-0.05,0.17-0.12,0.4-0.25,0.48c-2.71,1.45-5.42,2.89-8.15,4.31  c-0.18,0.09-0.46,0.01-0.76-0.16C481.49,122.65,484.49,120.98,487.83,119.56"/>
<path class="st0" d="M406.37,116.33c3.5-0.72,6.84-0.15,10.08,1.34c-1.72,0.31-3.38-0.29-5.03-0.5  C409.73,116.94,407.92,117.38,406.37,116.33"/>
<path class="st0" d="M435.49,128.69c-2.72-2.09-5.41-4.17-8.35-6.43c0.51-0.03,0.85-0.16,1.01-0.04c2.43,1.67,4.85,3.36,7.26,5.06  C435.97,127.67,436.09,128.13,435.49,128.69"/>
<path class="st0" d="M395.05,118.77c-0.21,0.31-0.36,0.77-0.65,0.9c-2.72,1.2-5.18,2.79-7.43,4.74c-0.1,0.09-0.33,0.03-0.52,0.03  C387.26,122.43,391.34,119.53,395.05,118.77"/>
<path class="st0" d="M525.46,131.21c-0.34-0.17-0.85-0.26-0.99-0.53c-1.4-2.85-3.33-5.31-5.82-7.76c0.53-0.04,0.8-0.14,0.9-0.06  c2.58,2.25,4.82,4.77,6.15,7.96C525.62,130.95,525.54,131.08,525.46,131.21"/>
<path class="st0" d="M438.78,162.12c-2.17,2.85-4.98,4.88-8.17,6.43c0.36-1.28,1.61-1.56,2.42-2.32c0.86-0.82,1.87-1.48,2.79-2.25  C436.71,163.23,437.55,162.4,438.78,162.12"/>
<path class="st0" d="M447.28,154.55c1.67-2.69,6.12-6.57,7.92-7.04c-0.75,1.21-1.82,1.77-2.62,2.57c-0.85,0.84-1.74,1.63-2.63,2.43  C449.11,153.26,448.43,154.23,447.28,154.55"/>
<path class="st0" d="M499.27,116.65c3.41,0.04,6.84-0.36,10.44,0.26c-0.55,1.2-1.18,0.91-1.78,0.81c-1.55-0.24-3.1-0.53-4.66-0.67  c-0.86-0.08-1.75,0.12-2.63,0.18c-0.47,0.03-0.94,0-1.42,0C499.24,117.04,499.26,116.85,499.27,116.65"/>
<path class="st0" d="M443.24,135.93c0.55,0.26,1.01,0.32,1.17,0.58c0.69,1.15,2.14,1.9,2.13,3.66  C445.14,139.3,443.82,137.62,443.24,135.93"/>
<path class="st0" d="M466.74,157.47c-1.44-0.75-2.66-1.95-3.3-3.29C465.02,154.32,466.88,156.18,466.74,157.47"/>
<path class="st0" d="M234.53,149.27c0-7.01-4.64-12.7-10.37-12.7c-5.73,0-10.37,5.69-10.37,12.7c0,7.01,4.64,12.7,10.37,12.7  C229.88,161.96,234.53,156.28,234.53,149.27"/>
<path class="st0" d="M165.79,150.25c0-7.51-4.97-13.6-11.1-13.6c-6.13,0-11.1,6.09-11.1,13.6c0,7.51,4.97,13.6,11.1,13.6  C160.82,163.84,165.79,157.76,165.79,150.25"/>
</svg>