<svg width="33" height="32" viewBox="0 0 33 32" fill="none" xmlns="http://www.w3.org/2000/svg">
<path d="M6.2446 25.7175C7.35125 28 10.6444 28 10.6444 28C11.1967 28 11.6444 27.5523 11.6444 27C11.6444 26.4477 11.1967 26 10.6444 26C8.60423 26 8.04422 24.845 8.04422 24.845C7.7891 24.3188 7.70224 23.423 7.70224 23.423C7.64441 22.8266 7.64441 21.5 7.64441 21.5C7.64441 20.0766 7.57724 19.384 7.57724 19.384C7.45577 18.1313 7.04422 17.2825 7.04422 17.2825C6.67007 16.5108 6.04598 16 6.04598 16C6.67007 15.4892 7.04422 14.7175 7.04422 14.7175C7.45577 13.8687 7.57724 12.616 7.57724 12.616C7.64441 11.9234 7.64441 10.5 7.64441 10.5C7.64441 9.17337 7.70224 8.57699 7.70224 8.57699C7.7891 7.68121 8.04422 7.15502 8.04422 7.15502C8.60423 6 10.6444 6 10.6444 6C11.1967 6 11.6444 5.55228 11.6444 5C11.6444 4.44772 11.1967 4 10.6444 4C7.35125 4 6.2446 6.28248 6.2446 6.28248C5.83305 7.13129 5.71158 8.38395 5.71158 8.38395C5.64441 9.07663 5.64441 10.5 5.64441 10.5C5.64441 11.8266 5.58658 12.423 5.58658 12.423C5.49971 13.3188 5.2446 13.845 5.2446 13.845C4.68458 15 2.64441 15 2.64441 15C2.09212 15 1.64441 15.4477 1.64441 16C1.64441 16.5523 2.09212 17 2.64441 17C4.68458 17 5.2446 18.155 5.2446 18.155C5.49971 18.6812 5.58658 19.577 5.58658 19.577C5.64441 20.1734 5.64441 21.5 5.64441 21.5C5.64441 22.9234 5.71158 23.616 5.71158 23.616C5.83305 24.8687 6.2446 25.7175 6.2446 25.7175Z" fill="#1C1C1C"/>
<path d="M25.2446 24.845C24.6846 26 22.6444 26 22.6444 26C22.0921 26 21.6444 26.4477 21.6444 27C21.6444 27.5523 22.0921 28 22.6444 28C25.9376 28 27.0442 25.7175 27.0442 25.7175C27.4558 24.8687 27.5772 23.616 27.5772 23.616C27.6444 22.9234 27.6444 21.5 27.6444 21.5C27.6444 20.1734 27.7022 19.577 27.7022 19.577C27.7891 18.6812 28.0442 18.155 28.0442 18.155C28.6042 17 30.6444 17 30.6444 17C31.1967 17 31.6444 16.5523 31.6444 16C31.6444 15.4477 31.1967 15 30.6444 15C28.6042 15 28.0442 13.845 28.0442 13.845C27.7891 13.3188 27.7022 12.423 27.7022 12.423C27.6444 11.8266 27.6444 10.5 27.6444 10.5C27.6444 9.07663 27.5772 8.38395 27.5772 8.38395C27.4558 7.13129 27.0442 6.28248 27.0442 6.28248C25.9376 4 22.6444 4 22.6444 4C22.0921 4 21.6444 4.44772 21.6444 5C21.6444 5.55228 22.0921 6 22.6444 6C24.6846 6 25.2446 7.15502 25.2446 7.15502C25.4997 7.68121 25.5866 8.57699 25.5866 8.57699C25.6444 9.17337 25.6444 10.5 25.6444 10.5C25.6444 11.9234 25.7116 12.616 25.7116 12.616C25.833 13.8687 26.2446 14.7175 26.2446 14.7175C26.6187 15.4892 27.2428 16 27.2428 16C26.6187 16.5108 26.2446 17.2825 26.2446 17.2825C25.833 18.1313 25.7116 19.384 25.7116 19.384C25.6444 20.0766 25.6444 21.5 25.6444 21.5C25.6444 22.8266 25.5866 23.423 25.5866 23.423C25.4997 24.3188 25.2446 24.845 25.2446 24.845Z" fill="#1C1C1C"/>
</svg>
