<svg width="32" height="32" viewBox="0 0 32 32" fill="none" xmlns="http://www.w3.org/2000/svg">
<path fill-rule="evenodd" clip-rule="evenodd" d="M26.4142 28.4142C26.4142 28.4142 25.8284 29 25 29H7C7 29 6.17157 29 5.58579 28.4142C5.58579 28.4142 5 27.8284 5 27V5C5 5 5 4.17157 5.58579 3.58579C5.58579 3.58579 6.17157 3 7 3H19C19.2652 3 19.5196 3.10536 19.7071 3.29289L26.7071 10.2929C26.8946 10.4804 27 10.7348 27 11V27C27 27 27 27.8284 26.4142 28.4142ZM25 27V11.4142L18.5858 5H7V27H25Z" fill="white"/>
<path d="M19 12H26C26.5523 12 27 11.5523 27 11C27 10.4477 26.5523 10 26 10H20V4C20 3.44772 19.5523 3 19 3C18.4477 3 18 3.44772 18 4V11C18 11.5523 18.4477 12 19 12Z" fill="white"/>
<path d="M13 20H19C19.5523 20 20 19.5523 20 19C20 18.4477 19.5523 18 19 18H13C12.4477 18 12 18.4477 12 19C12 19.5523 12.4477 20 13 20Z" fill="white"/>
</svg>
