<svg width="33" height="33" viewBox="0 0 33 33" fill="none" xmlns="http://www.w3.org/2000/svg">
<path fill-rule="evenodd" clip-rule="evenodd" d="M16.6443 19.688C16.6443 19.688 18.5082 19.688 19.8263 21.006C19.8263 21.006 21.1443 22.324 21.1443 24.188C21.1443 24.188 21.1443 26.0519 19.8263 27.37C19.8263 27.37 18.5082 28.688 16.6443 28.688C16.6443 28.688 14.7803 28.688 13.4623 27.37C13.4623 27.37 12.1443 26.0519 12.1443 24.188C12.1443 24.188 12.1443 22.324 13.4623 21.006C13.4623 21.006 14.7803 19.688 16.6443 19.688ZM16.6443 21.688C16.6443 21.688 15.6088 21.688 14.8765 22.4202C14.8765 22.4202 14.1443 23.1525 14.1443 24.188C14.1443 24.188 14.1443 25.2235 14.8765 25.9558C14.8765 25.9558 15.6088 26.688 16.6443 26.688C16.6443 26.688 17.6798 26.688 18.4121 25.9558C18.4121 25.9558 19.1443 25.2235 19.1443 24.188C19.1443 24.188 19.1443 23.1525 18.4121 22.4202C18.4121 22.4202 17.6798 21.688 16.6443 21.688Z" fill="#1C1C1C"/>
<path fill-rule="evenodd" clip-rule="evenodd" d="M24.1443 4.68799C24.1443 4.68799 26.0082 4.68799 27.3263 6.00601C27.3263 6.00601 28.6443 7.32403 28.6443 9.18799C28.6443 9.18799 28.6443 11.0519 27.3263 12.37C27.3263 12.37 26.0082 13.688 24.1443 13.688C24.1443 13.688 22.2803 13.688 20.9623 12.37C20.9623 12.37 19.6443 11.0519 19.6443 9.18799C19.6443 9.18799 19.6443 7.32403 20.9623 6.00601C20.9623 6.00601 22.2803 4.68799 24.1443 4.68799ZM24.1443 6.68799C24.1443 6.68799 23.1088 6.68799 22.3765 7.42022C22.3765 7.42022 21.6443 8.15245 21.6443 9.18799C21.6443 9.18799 21.6443 10.2235 22.3765 10.9558C22.3765 10.9558 23.1088 11.688 24.1443 11.688C24.1443 11.688 25.1798 11.688 25.9121 10.9558C25.9121 10.9558 26.6443 10.2235 26.6443 9.18799C26.6443 9.18799 26.6443 8.15245 25.9121 7.42022C25.9121 7.42022 25.1798 6.68799 24.1443 6.68799Z" fill="#1C1C1C"/>
<path fill-rule="evenodd" clip-rule="evenodd" d="M9.14429 4.68799C9.14429 4.68799 11.0082 4.68799 12.3263 6.00601C12.3263 6.00601 13.6443 7.32403 13.6443 9.18799C13.6443 9.18799 13.6443 11.0519 12.3263 12.37C12.3263 12.37 11.0082 13.688 9.14429 13.688C9.14429 13.688 7.28033 13.688 5.96231 12.37C5.96231 12.37 4.64429 11.0519 4.64429 9.18799C4.64429 9.18799 4.64429 7.32403 5.96231 6.00601C5.96231 6.00601 7.28033 4.68799 9.14429 4.68799ZM9.14429 6.68799C9.14429 6.68799 8.10875 6.68799 7.37652 7.42022C7.37652 7.42022 6.64429 8.15245 6.64429 9.18799C6.64429 9.18799 6.64429 10.2235 7.37652 10.9558C7.37652 10.9558 8.10875 11.688 9.14429 11.688C9.14429 11.688 10.1798 11.688 10.9121 10.9558C10.9121 10.9558 11.6443 10.2235 11.6443 9.18799C11.6443 9.18799 11.6443 8.15245 10.9121 7.42022C10.9121 7.42022 10.1798 6.68799 9.14429 6.68799Z" fill="#1C1C1C"/>
<path d="M25.1443 13.688V12.688C25.1443 12.1357 24.6966 11.688 24.1443 11.688C23.592 11.688 23.1443 12.1357 23.1443 12.688V13.688C23.146 14.0897 22.9946 14.4572 22.9946 14.4572C22.8433 14.8248 22.5622 15.1059 22.5622 15.1059C22.2811 15.387 21.9135 15.5383 21.9135 15.5383C21.546 15.6897 21.1485 15.688 21.1485 15.688L12.1443 15.688C11.7426 15.6897 11.375 15.5383 11.375 15.5383C11.0075 15.387 10.7264 15.1059 10.7264 15.1059C10.4453 14.8248 10.294 14.4572 10.294 14.4572C10.1426 14.0897 10.1443 13.6922 10.1443 13.6922L10.1443 12.688C10.1443 12.1357 9.69657 11.688 9.14429 11.688C8.592 11.688 8.14428 12.1357 8.14428 12.688L8.14429 13.6838C8.14095 14.4813 8.4446 15.2187 8.4446 15.2187C8.74824 15.9562 9.31217 16.5201 9.31217 16.5201C9.87609 17.084 10.6135 17.3877 10.6135 17.3877C11.351 17.6913 12.1443 17.688 12.1443 17.688L21.1401 17.688C21.9376 17.6913 22.675 17.3877 22.675 17.3877C23.4125 17.084 23.9764 16.5201 23.9764 16.5201C24.5403 15.9562 24.844 15.2187 24.844 15.2187C25.1476 14.4813 25.1443 13.688 25.1443 13.688Z" fill="#1C1C1C"/>
<path d="M15.6443 16.688V20.688C15.6443 21.2403 16.092 21.688 16.6443 21.688C17.1966 21.688 17.6443 21.2403 17.6443 20.688V16.688C17.6443 16.1357 17.1966 15.688 16.6443 15.688C16.092 15.688 15.6443 16.1357 15.6443 16.688Z" fill="#1C1C1C"/>
</svg>
