<svg width="47" height="33" viewBox="0 0 47 33" fill="none" xmlns="http://www.w3.org/2000/svg">
<path d="M41.1296 6.25001L43.8618 13.0803C44.0157 13.4651 44.3161 13.773 44.697 13.9362C44.8915 14.0196 45.1009 14.0625 45.3125 14.0625L45.3323 14.0624C45.5244 14.06 45.7144 14.0221 45.8928 13.9508C46.486 13.7135 46.875 13.139 46.875 12.5L46.875 12.4945C46.8743 12.2976 46.8364 12.1026 46.7632 11.9197L44.0289 5.0838C43.6785 4.19583 42.8815 3.65732 42.8815 3.65732C42.0845 3.11881 41.1226 3.12507 41.1226 3.12507L32.8125 3.12504C31.9496 3.12504 31.25 3.82459 31.25 4.68754C31.25 5.55048 31.9496 6.25004 32.8125 6.25004L41.1296 6.25001Z" fill="#FFFDFD"/>
<path d="M1.5625 18.75H32.8125C33.6754 18.75 34.375 18.0504 34.375 17.1875C34.375 16.3246 33.6754 15.625 32.8125 15.625H1.5625C0.699555 15.625 0 16.3246 0 17.1875C0 18.0504 0.699555 18.75 1.5625 18.75Z" fill="#FFFDFD"/>
<path fill-rule="evenodd" clip-rule="evenodd" d="M35.1562 20.3125C35.1562 20.3125 37.7451 20.3125 39.5757 22.1431C39.5757 22.1431 41.4062 23.9737 41.4062 26.5625C41.4062 26.5625 41.4062 29.1513 39.5757 30.9819C39.5757 30.9819 37.7451 32.8125 35.1562 32.8125C35.1562 32.8125 32.5674 32.8125 30.7368 30.9819C30.7368 30.9819 28.9062 29.1513 28.9062 26.5625C28.9062 26.5625 28.9062 23.9737 30.7368 22.1431C30.7368 22.1431 32.5674 20.3125 35.1562 20.3125ZM35.1562 23.4375C35.1562 23.4375 33.8618 23.4375 32.9465 24.3528C32.9465 24.3528 32.0312 25.2681 32.0312 26.5625C32.0312 26.5625 32.0312 27.8569 32.9465 28.7722C32.9465 28.7722 33.8618 29.6875 35.1562 29.6875C35.1562 29.6875 36.4507 29.6875 37.366 28.7722C37.366 28.7722 38.2812 27.8569 38.2812 26.5625C38.2812 26.5625 38.2812 25.2681 37.366 24.3528C37.366 24.3528 36.4507 23.4375 35.1562 23.4375Z" fill="#FFFDFD"/>
<path fill-rule="evenodd" clip-rule="evenodd" d="M11.7188 20.3125C11.7188 20.3125 14.3076 20.3125 16.1382 22.1431C16.1382 22.1431 17.9688 23.9737 17.9688 26.5625C17.9688 26.5625 17.9688 29.1513 16.1382 30.9819C16.1382 30.9819 14.3076 32.8125 11.7188 32.8125C11.7188 32.8125 9.12992 32.8125 7.29933 30.9819C7.29933 30.9819 5.46875 29.1513 5.46875 26.5625C5.46875 26.5625 5.46875 23.9737 7.29933 22.1431C7.29933 22.1431 9.12992 20.3125 11.7188 20.3125ZM11.7188 23.4375C11.7188 23.4375 10.4243 23.4375 9.50904 24.3528C9.50904 24.3528 8.59375 25.2681 8.59375 26.5625C8.59375 26.5625 8.59375 27.8569 9.50904 28.7722C9.50904 28.7722 10.4243 29.6875 11.7188 29.6875C11.7188 29.6875 13.0132 29.6875 13.9285 28.7722C13.9285 28.7722 14.8438 27.8569 14.8438 26.5625C14.8438 26.5625 14.8438 25.2681 13.9285 24.3528C13.9285 24.3528 13.0132 23.4375 11.7188 23.4375Z" fill="#FFFDFD"/>
<path d="M30.4688 25H16.4062C15.5433 25 14.8438 25.6996 14.8438 26.5625C14.8438 27.4254 15.5433 28.125 16.4062 28.125H30.4688C31.3317 28.125 32.0312 27.4254 32.0312 26.5625C32.0312 25.6996 31.3317 25 30.4688 25Z" fill="#FFFDFD"/>
<path d="M31.25 3.125V22.5C31.25 23.3629 31.9496 24.0625 32.8125 24.0625C33.6754 24.0625 34.375 23.3629 34.375 22.5V1.5625C34.375 0.699555 33.6754 0 32.8125 0H3.125C1.83058 0 0.915291 0.915292 0.915291 0.915292C0 1.83058 0 3.125 0 3.125V25C0 26.2944 0.915292 27.2097 0.915292 27.2097C1.83058 28.125 3.125 28.125 3.125 28.125H7.03125C7.8942 28.125 8.59375 27.4254 8.59375 26.5625C8.59375 25.6996 7.8942 25 7.03125 25H3.125V3.125H31.25Z" fill="#FFFDFD"/>
<path d="M43.75 25H39.8438C38.9808 25 38.2812 25.6996 38.2812 26.5625C38.2812 27.4254 38.9808 28.125 39.8438 28.125H43.75C45.0444 28.125 45.9597 27.2097 45.9597 27.2097C46.875 26.2944 46.875 25 46.875 25V12.5C46.875 11.6371 46.1754 10.9375 45.3125 10.9375H32.8125C31.9496 10.9375 31.25 11.6371 31.25 12.5C31.25 13.3629 31.9496 14.0625 32.8125 14.0625H43.75V25Z" fill="#FFFDFD"/>
</svg>
